<mxfile host="app.diagrams.net" modified="2021-12-08T06:07:28.370Z" agent="5.0 (Macintosh; Intel Mac OS X 11_6_1) AppleWebKit/537.36 (KHTML, like Gecko) Chrome/89.0.4389.114 Safari/537.36" etag="Il76AXx_1nMT8cHSh5qN" version="15.9.1" type="github">
  <diagram id="s-vdipbRV10AutQqlhQl" name="Page-1">
    <mxGraphModel dx="1773" dy="614" grid="1" gridSize="10" guides="1" tooltips="1" connect="1" arrows="1" fold="1" page="1" pageScale="1" pageWidth="827" pageHeight="1169" math="0" shadow="0">
      <root>
        <mxCell id="0" />
        <mxCell id="1" parent="0" />
        <mxCell id="gTkDmRqyJTE2ca7jixcS-4" value="" style="edgeStyle=orthogonalEdgeStyle;rounded=0;orthogonalLoop=1;jettySize=auto;html=1;" edge="1" parent="1" source="gTkDmRqyJTE2ca7jixcS-1" target="gTkDmRqyJTE2ca7jixcS-2">
          <mxGeometry relative="1" as="geometry" />
        </mxCell>
        <mxCell id="gTkDmRqyJTE2ca7jixcS-1" value="Start" style="html=1;dashed=0;whitespace=wrap;shape=mxgraph.dfd.start" vertex="1" parent="1">
          <mxGeometry x="380" y="60" width="80" height="30" as="geometry" />
        </mxCell>
        <mxCell id="gTkDmRqyJTE2ca7jixcS-6" value="" style="edgeStyle=orthogonalEdgeStyle;rounded=0;orthogonalLoop=1;jettySize=auto;html=1;" edge="1" parent="1" source="gTkDmRqyJTE2ca7jixcS-2" target="gTkDmRqyJTE2ca7jixcS-5">
          <mxGeometry relative="1" as="geometry" />
        </mxCell>
        <mxCell id="gTkDmRqyJTE2ca7jixcS-2" value="Query" style="rounded=0;whiteSpace=wrap;html=1;" vertex="1" parent="1">
          <mxGeometry x="360" y="160" width="120" height="60" as="geometry" />
        </mxCell>
        <mxCell id="gTkDmRqyJTE2ca7jixcS-3" value="当前算薪活动员工列表" style="text;html=1;strokeColor=none;fillColor=none;align=center;verticalAlign=middle;whiteSpace=wrap;rounded=0;" vertex="1" parent="1">
          <mxGeometry x="490" y="180" width="140" height="30" as="geometry" />
        </mxCell>
        <mxCell id="gTkDmRqyJTE2ca7jixcS-10" style="edgeStyle=orthogonalEdgeStyle;rounded=0;orthogonalLoop=1;jettySize=auto;html=1;entryX=0.5;entryY=0;entryDx=0;entryDy=0;" edge="1" parent="1" source="gTkDmRqyJTE2ca7jixcS-5" target="gTkDmRqyJTE2ca7jixcS-15">
          <mxGeometry relative="1" as="geometry">
            <mxPoint x="420" y="430" as="targetPoint" />
          </mxGeometry>
        </mxCell>
        <mxCell id="gTkDmRqyJTE2ca7jixcS-11" value="Y" style="edgeLabel;html=1;align=center;verticalAlign=middle;resizable=0;points=[];" vertex="1" connectable="0" parent="gTkDmRqyJTE2ca7jixcS-10">
          <mxGeometry x="-0.1987" y="-1" relative="1" as="geometry">
            <mxPoint as="offset" />
          </mxGeometry>
        </mxCell>
        <mxCell id="gTkDmRqyJTE2ca7jixcS-18" style="edgeStyle=orthogonalEdgeStyle;rounded=0;orthogonalLoop=1;jettySize=auto;html=1;entryX=0.5;entryY=0;entryDx=0;entryDy=0;" edge="1" parent="1" source="gTkDmRqyJTE2ca7jixcS-5" target="gTkDmRqyJTE2ca7jixcS-17">
          <mxGeometry relative="1" as="geometry" />
        </mxCell>
        <mxCell id="gTkDmRqyJTE2ca7jixcS-20" value="N" style="edgeLabel;html=1;align=center;verticalAlign=middle;resizable=0;points=[];" vertex="1" connectable="0" parent="gTkDmRqyJTE2ca7jixcS-18">
          <mxGeometry x="-0.1357" y="1" relative="1" as="geometry">
            <mxPoint x="61" y="-1" as="offset" />
          </mxGeometry>
        </mxCell>
        <mxCell id="gTkDmRqyJTE2ca7jixcS-5" value="Tab = 0" style="rhombus;whiteSpace=wrap;html=1;" vertex="1" parent="1">
          <mxGeometry x="360" y="280" width="120" height="80" as="geometry" />
        </mxCell>
        <mxCell id="gTkDmRqyJTE2ca7jixcS-8" value="Tab 页是否切换为全部" style="text;html=1;strokeColor=none;fillColor=none;align=center;verticalAlign=middle;whiteSpace=wrap;rounded=0;" vertex="1" parent="1">
          <mxGeometry x="490" y="305" width="140" height="30" as="geometry" />
        </mxCell>
        <mxCell id="gTkDmRqyJTE2ca7jixcS-24" value="" style="edgeStyle=orthogonalEdgeStyle;rounded=0;orthogonalLoop=1;jettySize=auto;html=1;" edge="1" parent="1" source="gTkDmRqyJTE2ca7jixcS-15" target="gTkDmRqyJTE2ca7jixcS-23">
          <mxGeometry relative="1" as="geometry" />
        </mxCell>
        <mxCell id="gTkDmRqyJTE2ca7jixcS-15" value="Merge" style="rounded=0;whiteSpace=wrap;html=1;" vertex="1" parent="1">
          <mxGeometry x="360" y="440" width="120" height="60" as="geometry" />
        </mxCell>
        <mxCell id="gTkDmRqyJTE2ca7jixcS-21" style="edgeStyle=orthogonalEdgeStyle;rounded=0;orthogonalLoop=1;jettySize=auto;html=1;entryX=0;entryY=0.5;entryDx=0;entryDy=0;" edge="1" parent="1" source="gTkDmRqyJTE2ca7jixcS-17">
          <mxGeometry relative="1" as="geometry">
            <mxPoint x="360" y="470" as="targetPoint" />
          </mxGeometry>
        </mxCell>
        <mxCell id="gTkDmRqyJTE2ca7jixcS-17" value="Query" style="rounded=0;whiteSpace=wrap;html=1;" vertex="1" parent="1">
          <mxGeometry x="140" y="440" width="120" height="60" as="geometry" />
        </mxCell>
        <mxCell id="gTkDmRqyJTE2ca7jixcS-19" value="调用Feign接口进行相应 tab 过滤并返回员工列表" style="text;html=1;strokeColor=none;fillColor=none;align=center;verticalAlign=middle;whiteSpace=wrap;rounded=0;" vertex="1" parent="1">
          <mxGeometry x="-160" y="455" width="280" height="30" as="geometry" />
        </mxCell>
        <mxCell id="gTkDmRqyJTE2ca7jixcS-22" value="员工列表范围取交集" style="text;html=1;strokeColor=none;fillColor=none;align=center;verticalAlign=middle;whiteSpace=wrap;rounded=0;" vertex="1" parent="1">
          <mxGeometry x="490" y="455" width="140" height="30" as="geometry" />
        </mxCell>
        <mxCell id="gTkDmRqyJTE2ca7jixcS-27" style="edgeStyle=orthogonalEdgeStyle;rounded=0;orthogonalLoop=1;jettySize=auto;html=1;entryX=0.5;entryY=0;entryDx=0;entryDy=0;" edge="1" parent="1" source="gTkDmRqyJTE2ca7jixcS-23" target="gTkDmRqyJTE2ca7jixcS-26">
          <mxGeometry relative="1" as="geometry" />
        </mxCell>
        <mxCell id="gTkDmRqyJTE2ca7jixcS-23" value="Filter" style="rhombus;whiteSpace=wrap;html=1;" vertex="1" parent="1">
          <mxGeometry x="360" y="570" width="120" height="80" as="geometry" />
        </mxCell>
        <mxCell id="gTkDmRqyJTE2ca7jixcS-25" value="是否经过关键词、筛选器过滤" style="text;html=1;strokeColor=none;fillColor=none;align=center;verticalAlign=middle;whiteSpace=wrap;rounded=0;" vertex="1" parent="1">
          <mxGeometry x="490" y="595" width="170" height="30" as="geometry" />
        </mxCell>
        <mxCell id="gTkDmRqyJTE2ca7jixcS-26" value="Merge" style="rounded=0;whiteSpace=wrap;html=1;" vertex="1" parent="1">
          <mxGeometry x="360" y="720" width="120" height="60" as="geometry" />
        </mxCell>
        <mxCell id="gTkDmRqyJTE2ca7jixcS-28" value="筛选的员工ID取交集" style="text;html=1;strokeColor=none;fillColor=none;align=center;verticalAlign=middle;whiteSpace=wrap;rounded=0;" vertex="1" parent="1">
          <mxGeometry x="490" y="735" width="170" height="30" as="geometry" />
        </mxCell>
      </root>
    </mxGraphModel>
  </diagram>
</mxfile>
